<svg width="2327" height="617" viewBox="0 0 2327 617" fill="none" xmlns="http://www.w3.org/2000/svg">
<path d="M174.5 102.5L153.5 0H353L373 102.5L325 456L242 609.5H0L130.5 393.5L174.5 102.5Z" fill="white"/>
<path d="M590 1.5H413L429.5 84.5H607L590 1.5Z" fill="white"/>
<path d="M607 106.5H429.5L384 456H564L607 106.5Z" fill="white"/>
<path d="M830.5 106.5H672L628 456H755.5L854.5 303.5C858.29 298.587 859.852 298.048 861 303.5V322.5L844.5 456H972L1077.5 291.5C1080.7 289.642 1082.33 289.666 1085 291.5L1064 456H1228L1266 106.5H1109.5L1045.5 201C1039.67 206.566 1037.53 206.3 1036 199L1048 106.5H907L822 231C819.107 234.09 816.895 234.509 816.5 231L830.5 106.5Z" fill="white"/>
<path d="M1486 106.5H1327.5L1283.5 456H1425L1585 285C1588.73 281.434 1589.97 281.141 1590 285L1570 456H1736.5L1775.5 106.5H1619.5L1479 255.5C1476.63 257.039 1475.37 257.372 1473.5 255.5L1486 106.5Z" fill="white"/>
<path d="M1987 112.5H1837.5L1801.5 459.5H1940.5L1847 616.5H2043L2326.5 112.5H2152L1997 362.5H1960L1987 112.5Z" fill="white"/>
</svg>
