<svg width="452" height="23" viewBox="0 0 452 23" fill="none" xmlns="http://www.w3.org/2000/svg">
<path d="M6.377 17H0.765V0.302H6.377C11.759 0.302 14.588 3.292 14.588 8.628C14.588 14.102 11.897 17 6.377 17ZM6.377 1.084H1.593V16.218H6.377C11.391 16.218 13.76 13.573 13.76 8.628C13.76 6.236 13.093 4.35 11.897 3.039C10.655 1.774 8.769 1.084 6.377 1.084ZM18.4908 10.123V17H17.6398L17.5478 4.097H18.3988L18.4678 7.271C19.4798 5.408 21.3888 4.166 23.8268 4.166C24.9538 4.166 26.0348 4.465 27.0238 4.994L26.7478 5.822C25.8048 5.27 24.8388 4.994 23.8268 4.994C20.8138 4.994 18.7668 7.248 18.4908 10.123ZM30.4177 1.958C30.0037 1.958 29.6587 1.613 29.6587 1.199C29.6587 0.761999 29.9807 0.439999 30.4177 0.439999C30.6247 0.439999 30.8317 0.509 30.9697 0.646999C31.1077 0.807999 31.1767 0.991999 31.1767 1.199C31.1767 1.636 30.8547 1.958 30.4177 1.958ZM30.0037 17V4.074H30.8547V17H30.0037ZM34.133 4.12H35.076L40.32 15.091L45.541 4.097H46.53L40.32 17L34.133 4.12ZM58.5883 13.849H59.5543C58.3583 15.873 56.2883 17.207 53.7123 17.207C49.8023 17.207 47.4793 14.516 47.4793 10.698C47.4793 7.087 49.9173 4.166 53.6433 4.166C57.3463 4.166 59.8763 6.972 59.8763 11.158H48.3303C48.4683 14.309 50.5613 16.402 53.7123 16.402C55.8743 16.402 57.5763 15.39 58.5883 13.849ZM53.6433 4.994C50.5153 4.994 48.4223 7.271 48.3303 10.353H59.0253C58.9333 7.271 56.8403 4.994 53.6433 4.994ZM80.5308 15.39L80.9908 16.103C80.3008 16.862 79.3808 17.23 78.3458 17.23C76.2528 17.23 75.1948 16.057 75.1948 13.688V4.879H72.7568V4.097H75.1948V0.302H76.0458V4.097H80.7608V4.879H76.0458V13.688C76.0458 15.275 76.5978 16.448 78.3458 16.448C79.1508 16.448 79.9098 16.08 80.5308 15.39ZM84.7978 10.123V17H83.9468V0.302H84.7978V7.225C85.8098 5.339 87.6498 4.166 90.1108 4.166C93.8828 4.166 96.3438 7.087 96.3438 10.698V17H95.5158V10.698C95.5158 7.547 93.3768 4.994 90.1108 4.994C87.0978 4.994 85.0968 7.248 84.7978 10.123ZM110.087 13.849H111.053C109.857 15.873 107.787 17.207 105.211 17.207C101.301 17.207 98.9777 14.516 98.9777 10.698C98.9777 7.087 101.416 4.166 105.142 4.166C108.845 4.166 111.375 6.972 111.375 11.158H99.8287C99.9667 14.309 102.06 16.402 105.211 16.402C107.373 16.402 109.075 15.39 110.087 13.849ZM105.142 4.994C102.014 4.994 99.9207 7.271 99.8287 10.353H110.524C110.432 7.271 108.339 4.994 105.142 4.994ZM130.603 17.23C126.808 17.23 124.255 15.689 124.255 11.618V8.283H125.106V11.618C125.106 15.183 127.291 16.448 130.603 16.448C133.961 16.448 136.1 15.206 136.1 11.618V0.302H136.951V11.618C136.951 15.735 134.444 17.23 130.603 17.23ZM141.393 1.958C140.979 1.958 140.634 1.613 140.634 1.199C140.634 0.761999 140.956 0.439999 141.393 0.439999C141.6 0.439999 141.807 0.509 141.945 0.646999C142.083 0.807999 142.152 0.991999 142.152 1.199C142.152 1.636 141.83 1.958 141.393 1.958ZM140.979 17V4.074H141.83V17H140.979ZM160.731 4.143C163.905 4.143 165.952 7.087 165.952 10.698V17.023H165.147V10.698C165.147 7.547 163.399 5.017 160.731 5.017C158.109 5.017 156.338 7.547 156.338 10.698V17.023H155.533V10.698C155.533 7.547 153.762 5.017 151.117 5.017C148.633 5.017 146.977 7.248 146.747 10.123V17.023H145.896L145.827 4.143H146.655L146.724 6.995C147.598 5.27 149.139 4.143 151.117 4.143C153.394 4.143 155.142 5.776 155.924 8.007C156.706 5.776 158.454 4.143 160.731 4.143ZM170.583 10.123V17H169.732L169.64 4.097H170.491L170.56 7.179C171.572 5.201 173.481 4.166 175.919 4.166C179.691 4.166 182.106 7.087 182.106 10.698V17H181.324V10.698C181.324 7.547 179.185 4.994 175.919 4.994C172.906 4.994 170.859 7.248 170.583 10.123ZM189.656 16.103L194.348 4.097H195.268L189.081 19.898C188.644 21.002 188.161 21.83 187.632 22.313C187.08 22.727 186.367 22.98 185.539 22.98C185.148 22.98 184.711 22.911 184.274 22.727V21.784C184.757 22.06 185.194 22.152 185.562 22.152C186.16 22.152 186.666 21.991 187.103 21.646C187.517 21.278 187.885 20.611 188.276 19.645L189.219 17.23L183.952 4.097H184.872L189.656 16.103ZM198.61 15.574C199.369 15.574 199.645 16.287 199.645 16.931C199.645 18.127 199.024 19.116 197.943 19.668L197.207 19.116C198.104 18.771 198.909 18.081 198.909 17.069V17.046C198.794 17.115 198.679 17.138 198.541 17.138C198.127 17.138 197.805 16.77 197.805 16.356C197.805 15.919 198.196 15.574 198.61 15.574ZM220.931 17.253C216.009 17.253 212.513 13.665 212.513 8.674C212.513 3.775 215.894 0.0949997 220.931 0.0949997C224.427 0.0949997 227.21 1.866 228.544 4.672L227.624 4.695C226.382 2.372 223.99 0.876999 220.931 0.876999C216.492 0.876999 213.341 4.189 213.341 8.674C213.341 13.067 216.4 16.471 220.931 16.471C224.289 16.471 226.911 14.608 228.015 11.779L228.889 11.802C227.762 15.045 224.841 17.253 220.931 17.253ZM231.857 10.698C231.857 7.087 234.295 4.166 238.021 4.166C241.793 4.166 244.254 7.087 244.254 10.698C244.254 14.332 241.793 17.207 238.021 17.207C234.295 17.207 231.857 14.332 231.857 10.698ZM243.426 10.698C243.426 7.547 241.31 4.994 238.021 4.994C234.801 4.994 232.685 7.547 232.685 10.698C232.685 13.895 234.755 16.402 238.021 16.402C241.356 16.402 243.426 13.895 243.426 10.698ZM248.167 10.123V17H247.316L247.224 4.097H248.075L248.144 7.179C249.156 5.201 251.065 4.166 253.503 4.166C257.275 4.166 259.69 7.087 259.69 10.698V17H258.908V10.698C258.908 7.547 256.769 4.994 253.503 4.994C250.49 4.994 248.443 7.248 248.167 10.123ZM268.533 17.184C264.761 17.184 262.323 14.286 262.323 10.675C262.323 7.041 264.761 4.143 268.533 4.143C270.994 4.143 272.834 5.316 273.869 7.179V4.143H274.72V20.91H273.869V14.125C272.834 16.011 270.994 17.184 268.533 17.184ZM268.533 4.971C265.267 4.971 263.151 7.478 263.151 10.675C263.151 13.826 265.29 16.379 268.533 16.379C271.569 16.379 273.57 14.102 273.869 11.25V10.054C273.57 7.202 271.569 4.971 268.533 4.971ZM289.955 11.342V4.097H290.806L290.875 17.046H290.07L289.978 14.125C288.966 15.988 287.057 17.253 284.619 17.253C280.847 17.253 278.409 14.378 278.409 10.744V4.097H279.237V10.744C279.237 13.918 281.376 16.448 284.619 16.448C287.655 16.448 289.656 14.171 289.955 11.342ZM305.133 13.849H306.099C304.903 15.873 302.833 17.207 300.257 17.207C296.347 17.207 294.024 14.516 294.024 10.698C294.024 7.087 296.462 4.166 300.188 4.166C303.891 4.166 306.421 6.972 306.421 11.158H294.875C295.013 14.309 297.106 16.402 300.257 16.402C302.419 16.402 304.121 15.39 305.133 13.849ZM300.188 4.994C297.06 4.994 294.967 7.271 294.875 10.353H305.57C305.478 7.271 303.385 4.994 300.188 4.994ZM310.065 10.123V17H309.214L309.122 4.097H309.973L310.042 7.271C311.054 5.408 312.963 4.166 315.401 4.166C316.528 4.166 317.609 4.465 318.598 4.994L318.322 5.822C317.379 5.27 316.413 4.994 315.401 4.994C312.388 4.994 310.341 7.248 310.065 10.123ZM338.67 15.39L339.13 16.103C338.44 16.862 337.52 17.23 336.485 17.23C334.392 17.23 333.334 16.057 333.334 13.688V4.879H330.896V4.097H333.334V0.302H334.185V4.097H338.9V4.879H334.185V13.688C334.185 15.275 334.737 16.448 336.485 16.448C337.29 16.448 338.049 16.08 338.67 15.39ZM342.937 10.123V17H342.086V0.302H342.937V7.225C343.949 5.339 345.789 4.166 348.25 4.166C352.022 4.166 354.483 7.087 354.483 10.698V17H353.655V10.698C353.655 7.547 351.516 4.994 348.25 4.994C345.237 4.994 343.236 7.248 342.937 10.123ZM368.226 13.849H369.192C367.996 15.873 365.926 17.207 363.35 17.207C359.44 17.207 357.117 14.516 357.117 10.698C357.117 7.087 359.555 4.166 363.281 4.166C366.984 4.166 369.514 6.972 369.514 11.158H357.968C358.106 14.309 360.199 16.402 363.35 16.402C365.512 16.402 367.214 15.39 368.226 13.849ZM363.281 4.994C360.153 4.994 358.06 7.271 357.968 10.353H368.663C368.571 7.271 366.478 4.994 363.281 4.994ZM393.04 0.302L398.077 14.562L403.022 0.302H403.873L398.077 17L392.718 1.889L387.382 17L381.563 0.302H382.437L387.382 14.562L392.419 0.302H393.04ZM404.703 10.698C404.703 7.087 407.141 4.166 410.867 4.166C414.639 4.166 417.1 7.087 417.1 10.698C417.1 14.332 414.639 17.207 410.867 17.207C407.141 17.207 404.703 14.332 404.703 10.698ZM416.272 10.698C416.272 7.547 414.156 4.994 410.867 4.994C407.647 4.994 405.531 7.547 405.531 10.698C405.531 13.895 407.601 16.402 410.867 16.402C414.202 16.402 416.272 13.895 416.272 10.698ZM421.013 10.123V17H420.162L420.07 4.097H420.921L420.99 7.271C422.002 5.408 423.911 4.166 426.349 4.166C427.476 4.166 428.557 4.465 429.546 4.994L429.27 5.822C428.327 5.27 427.361 4.994 426.349 4.994C423.336 4.994 421.289 7.248 421.013 10.123ZM433.237 14.148V0.302H434.088V14.148C434.088 15.252 434.295 16.448 435.652 16.448C436.227 16.448 436.457 16.402 437.078 16.103V16.977C436.641 17.138 436.158 17.23 435.652 17.23C433.743 17.23 433.237 15.827 433.237 14.148ZM444.909 4.166C447.37 4.166 449.21 5.339 450.245 7.225V0.302H451.096V17H450.245V14.171C449.21 16.034 447.37 17.207 444.909 17.207C441.137 17.207 438.699 14.332 438.699 10.698C438.699 7.087 441.137 4.166 444.909 4.166ZM444.909 16.402C447.945 16.402 449.946 14.148 450.245 11.319V10.123C449.946 7.248 447.945 4.994 444.909 4.994C441.666 4.994 439.527 7.547 439.527 10.698C439.527 13.895 441.643 16.402 444.909 16.402Z" fill="white" fill-opacity="0.75"/>
</svg>
